<svg enable-background="new 0 0 1024 1024" height="1024" width="1024" xmlns="http://www.w3.org/2000/svg"><path d="m1023 1v1022h-1022v-1022zm1-1h-1024v1024h1024z"/><circle cx="512" cy="512" fill="#9acd32" r="463.9"/><path d="m512 5.1c-272 0-492.3 226.9-492.3 506.9s220.3 506.9 492.3 506.9 492.3-226.9 492.3-506.9-220.3-506.9-492.3-506.9zm0 948.4c-236.4 0-428.8-198.1-428.8-441.5s192.4-441.5 428.8-441.5 428.8 198.1 428.8 441.5-192.4 441.5-428.8 441.5z"/><ellipse cx="341.6" cy="390.1" rx="80.1" ry="82.5"/><ellipse cx="682.1" cy="390.1" rx="80.1" ry="82.5"/><path d="m739.5 667.6c-52.1 65.6-134.6 108-227.5 108s-175.4-42.4-227.5-108" style="fill:none;stroke:#000;stroke-width:80;stroke-linecap:round;stroke-linejoin:round;stroke-miterlimit:10"/></svg>